<svg xmlns="http://www.w3.org/2000/svg" viewBox="0 0 32 40" x="0px" y="0px">
    <title>search@1000x-20</title>
    <g>
        <path fill="#fff" d="M29,23.2l-6.8-6.8a10.14,10.14,0,1,0-4.56,4.52l6.82,6.82a3.2,3.2,0,0,0,2.28.95h0A3.21,3.21,0,0,0,29,23.2ZM7.64,17.63a8,8,0,1,1,12.5-1.57,8.11,8.11,0,0,1-1.22,1.57,7.48,7.48,0,0,1-1.57,1.21A8,8,0,0,1,7.64,17.63Zm20,8.69a1.19,1.19,0,0,1-.85.36h0a1.21,1.21,0,0,1-.86-.36l-6.48-6.48a9.72,9.72,0,0,0,1.71-1.71l6.48,6.48a1.21,1.21,0,0,1,0,1.71Z"/>
        <path fill="#fff" d="M18.22,8.46a1,1,0,0,0,0-1.41,6.93,6.93,0,0,0-4.94-2,1,1,0,0,0,0,2A5,5,0,0,1,16.8,8.46a1,1,0,0,0,1.41,0Z"/>
    </g>
</svg>